<svg version="1.1" id="Layer_1" xmlns="http://www.w3.org/2000/svg" xmlns:xlink="http://www.w3.org/1999/xlink" x="0px" y="0px"
	 width="100%" viewBox="0 0 128 144" enable-background="new 0 0 128 144" xml:space="preserve">
<path fill="#A179DC" opacity="1.000000" stroke="none" 
	d="
M58.000000,1.000001 
	C62.356899,1.000000 66.713799,1.000000 71.207031,1.259688 
	C71.792015,1.981232 72.163895,2.576463 72.700584,2.885412 
	C85.612671,10.318415 98.653252,17.536413 111.418747,25.212141 
	C117.175720,28.673737 122.390862,33.036438 127.509094,37.059998 
	C125.566864,37.951057 123.958092,38.754910 122.369576,39.596966 
	C117.050255,42.416702 111.738182,45.250095 106.105438,47.913971 
	C104.890518,46.555969 103.993690,45.362106 103.096451,44.168549 
	C90.489609,27.398108 68.286789,21.001804 48.660172,28.313557 
	C22.684380,37.990646 8.919188,68.972420 23.676918,96.837509 
	C18.861916,99.384499 14.477169,102.010979 9.936021,104.331375 
	C7.078548,105.791451 3.986704,106.792839 1.000000,108.000000 
	C1.000000,84.312439 1.000000,60.624878 1.258458,36.796356 
	C3.509154,34.828300 5.253832,32.578373 7.534142,31.243311 
	C21.465246,23.086988 35.549633,15.192841 49.504795,7.076953 
	C52.501152,5.334366 55.176682,3.040122 58.000000,1.000001 
z"/>
<path fill="#2A0269" opacity="1.000000" stroke="none" 
	d="
M1.000000,108.333328 
	C3.986704,106.792839 7.078548,105.791451 9.936021,104.331375 
	C14.477169,102.010979 18.861916,99.384499 23.925011,97.081047 
	C26.201803,99.549721 27.708246,101.962906 29.555239,104.078812 
	C50.116924,127.634140 88.643883,125.668983 106.493263,97.156219 
	C113.551666,101.579231 120.316742,105.835793 126.920212,110.389801 
	C125.735313,111.512253 124.797203,112.482506 123.675789,113.140236 
	C109.545746,121.427643 95.357414,129.616196 81.261703,137.961288 
	C77.700348,140.069717 74.413170,142.641266 71.000000,145.000000 
	C66.975456,145.000000 62.950912,145.000000 58.485878,144.642456 
	C56.667118,143.184799 55.398277,141.898163 53.892834,141.014771 
	C44.053749,135.241104 34.143490,129.588852 24.296219,123.829010 
	C16.501377,119.269661 8.763288,114.613289 0.999999,110.000000 
	C1.000000,109.555557 1.000000,109.111107 1.000000,108.333328 
z"/>
<path fill="#3D0593" opacity="1.000000" stroke="none" 
	d="
M127.081825,110.092361 
	C120.316742,105.835793 113.551666,101.579231 106.343689,96.838387 
	C98.965790,92.591385 92.030800,88.828659 84.861626,84.815887 
	C78.352737,80.560059 72.078018,76.554291 66.023926,72.303894 
	C72.558563,68.289917 78.872581,64.520576 85.513962,60.694786 
	C92.701996,56.451641 99.562668,52.264950 106.423332,48.078259 
	C111.738182,45.250095 117.050255,42.416702 122.369576,39.596966 
	C123.958092,38.754910 125.566864,37.951057 127.794861,37.212746 
	C128.615585,37.197189 128.807785,37.098595 129.000000,37.000000 
	C129.000000,37.750000 129.000000,38.500000 128.753662,39.958324 
	C128.344742,41.470844 128.041397,42.274830 128.040207,43.079269 
	C128.010971,62.806252 127.995850,82.533333 128.053299,102.260178 
	C128.056931,103.507690 128.670303,104.753433 129.000000,106.000000 
	C129.000000,107.066673 129.000000,108.133339 128.702133,109.414047 
	C127.963455,109.782845 127.522644,109.937607 127.081825,110.092361 
M115.488708,69.167061 
	C116.599808,68.576904 117.710907,67.986740 118.822006,67.396576 
	C116.707611,66.646683 114.593224,65.896790 112.191826,65.045105 
	C112.060616,63.345963 111.899910,61.264816 111.739197,59.183674 
	C111.136848,59.048035 110.534492,58.912399 109.932137,58.776760 
	C109.337944,61.002701 108.743752,63.228645 108.115486,65.582214 
	C106.189018,65.582214 104.150215,65.582214 102.804527,65.582214 
	C101.922989,63.101288 101.217628,61.116180 100.512268,59.131073 
	C99.559402,61.276928 98.606537,63.422783 97.799919,65.239273 
	C95.847099,65.971794 93.893723,66.704521 91.940353,67.437241 
	C93.928642,68.326035 95.916931,69.214828 98.263245,70.263657 
	C98.263245,71.740517 98.263245,73.772423 98.263245,75.086708 
	C95.786713,76.047432 93.860367,76.794724 91.934021,77.542015 
	C93.927620,78.441452 95.921211,79.340897 97.702499,80.144554 
	C98.575348,82.045235 99.488197,84.033043 100.401054,86.020851 
	C101.211876,83.960945 102.022705,81.901047 102.878922,79.725815 
	C104.522781,79.725815 106.545647,79.725815 107.713211,79.725815 
	C108.819550,82.271568 109.634697,84.147285 110.449844,86.022995 
	C111.261932,83.974419 112.074028,81.925835 112.885574,79.878632 
	C114.805489,79.286324 116.964317,78.620316 119.123146,77.954308 
	C118.975204,77.399048 118.827271,76.843781 118.679337,76.288513 
	C116.598061,76.118820 114.516785,75.949135 111.833435,75.730354 
	C113.203133,73.464302 109.511124,69.842987 115.488708,69.167061 
z"/>
<path fill="#000000" opacity="1.000000" stroke="none" 
	d="
M126.920212,110.389801 
	C127.522644,109.937607 127.963455,109.782845 128.702133,109.814041 
	C129.000000,121.611511 129.000000,133.223022 129.000000,145.000000 
	C109.979385,145.000000 90.958351,145.000000 71.468658,145.000000 
	C74.413170,142.641266 77.700348,140.069717 81.261703,137.961288 
	C95.357414,129.616196 109.545746,121.427643 123.675789,113.140236 
	C124.797203,112.482506 125.735313,111.512253 126.920212,110.389801 
z"/>
<path fill="#000000" opacity="1.000000" stroke="none" 
	d="
M0.999999,110.468658 
	C8.763288,114.613289 16.501377,119.269661 24.296219,123.829010 
	C34.143490,129.588852 44.053749,135.241104 53.892834,141.014771 
	C55.398277,141.898163 56.667118,143.184799 58.022694,144.642456 
	C39.090809,145.000000 20.181618,145.000000 1.000000,145.000000 
	C1.000000,133.647217 1.000000,122.292267 0.999999,110.468658 
z"/>
<path fill="#000000" opacity="1.000000" stroke="none" 
	d="
M129.000000,36.531342 
	C128.807785,37.098595 128.615585,37.197189 128.137604,37.143044 
	C122.390862,33.036438 117.175720,28.673737 111.418747,25.212141 
	C98.653252,17.536413 85.612671,10.318415 72.700584,2.885412 
	C72.163895,2.576463 71.792015,1.981232 71.671677,1.259688 
	C90.910172,1.000000 109.820343,1.000000 129.000000,1.000000 
	C129.000000,12.686182 129.000000,24.374432 129.000000,36.531342 
z"/>
<path fill="#000000" opacity="1.000000" stroke="none" 
	d="
M57.531342,1.000001 
	C55.176682,3.040122 52.501152,5.334366 49.504795,7.076953 
	C35.549633,15.192841 21.465246,23.086988 7.534142,31.243311 
	C5.253832,32.578373 3.509154,34.828300 1.258458,36.327698 
	C1.000000,24.389093 1.000000,12.778186 1.000000,1.000000 
	C19.687267,1.000000 38.374977,1.000000 57.531342,1.000001 
z"/>
<path fill="#4D169E" opacity="1.000000" stroke="none" 
	d="
M129.000000,105.531342 
	C128.670303,104.753433 128.056931,103.507690 128.053299,102.260178 
	C127.995850,82.533333 128.010971,62.806252 128.040207,43.079269 
	C128.041397,42.274830 128.344742,41.470844 128.753662,40.333324 
	C129.000000,61.687561 129.000000,83.375122 129.000000,105.531342 
z"/>
<path fill="#FDFDFE" opacity="1.000000" stroke="none" 
	d="
M85.095802,85.065941 
	C92.030800,88.828659 98.965790,92.591385 106.050369,96.671951 
	C88.643883,125.668983 50.116924,127.634140 29.555239,104.078812 
	C27.708246,101.962906 26.201803,99.549721 24.289110,97.031067 
	C8.919188,68.972420 22.684380,37.990646 48.660172,28.313557 
	C68.286789,21.001804 90.489609,27.398108 103.096451,44.168549 
	C103.993690,45.362106 104.890518,46.555969 106.105438,47.913971 
	C99.562668,52.264950 92.701996,56.451641 85.434830,60.367126 
	C83.516457,58.349312 82.181984,56.400818 80.462822,54.890110 
	C71.816460,47.292168 58.733002,47.326881 49.885551,54.843349 
	C41.307560,62.130894 39.160736,74.698975 44.933109,84.386429 
	C55.016125,100.176888 75.943893,100.349831 85.095802,85.065941 
z"/>
<path fill="#A17ADC" opacity="1.000000" stroke="none" 
	d="
M44.898556,84.038536 
	C39.160736,74.698975 41.307560,62.130894 49.885551,54.843349 
	C58.733002,47.326881 71.816460,47.292168 80.462822,54.890110 
	C82.181984,56.400818 83.516457,58.349312 85.107452,60.423580 
	C78.872581,64.520576 72.558563,68.289917 65.684624,72.416855 
	C58.382652,76.529137 51.640602,80.283836 44.898556,84.038536 
z"/>
<path fill="#2A036A" opacity="1.000000" stroke="none" 
	d="
M44.933109,84.386429 
	C51.640602,80.283836 58.382652,76.529137 65.464005,72.661484 
	C72.078018,76.554291 78.352737,80.560059 84.861626,84.815887 
	C75.943893,100.349831 55.016125,100.176888 44.933109,84.386429 
z"/>
<path fill="#FCFBFD" opacity="1.000000" stroke="none" 
	d="
M115.049248,69.168503 
	C109.511124,69.842987 113.203133,73.464302 111.833435,75.730354 
	C114.516785,75.949135 116.598061,76.118820 118.679337,76.288513 
	C118.827271,76.843781 118.975204,77.399048 119.123146,77.954308 
	C116.964317,78.620316 114.805489,79.286324 112.885574,79.878632 
	C112.074028,81.925835 111.261932,83.974419 110.449844,86.022995 
	C109.634697,84.147285 108.819550,82.271568 107.713211,79.725815 
	C106.545647,79.725815 104.522781,79.725815 102.878922,79.725815 
	C102.022705,81.901047 101.211876,83.960945 100.401054,86.020851 
	C99.488197,84.033043 98.575348,82.045235 97.702499,80.144554 
	C95.921211,79.340897 93.927620,78.441452 91.934021,77.542015 
	C93.860367,76.794724 95.786713,76.047432 98.263245,75.086708 
	C98.263245,73.772423 98.263245,71.740517 98.263245,70.263657 
	C95.916931,69.214828 93.928642,68.326035 91.940353,67.437241 
	C93.893723,66.704521 95.847099,65.971794 97.799919,65.239273 
	C98.606537,63.422783 99.559402,61.276928 100.512268,59.131073 
	C101.217628,61.116180 101.922989,63.101288 102.804527,65.582214 
	C104.150215,65.582214 106.189018,65.582214 108.115486,65.582214 
	C108.743752,63.228645 109.337944,61.002701 109.932137,58.776760 
	C110.534492,58.912399 111.136848,59.048035 111.739197,59.183674 
	C111.899910,61.264816 112.060616,63.345963 112.191826,65.045105 
	C114.593224,65.896790 116.707611,66.646683 118.822006,67.396576 
	C117.710907,67.986740 116.599808,68.576904 115.049248,69.168503 
M102.753242,69.251297 
	C102.419289,71.370155 102.085335,73.489014 101.734131,75.717331 
	C104.448929,75.717331 106.469063,75.717331 108.412292,75.717331 
	C108.412292,73.386742 108.412292,71.378380 108.412292,69.145348 
	C106.551880,69.145348 105.092384,69.145348 102.753242,69.251297 
z"/>
<path fill="#49159A" opacity="1.000000" stroke="none" 
	d="
M103.193069,69.198318 
	C105.092384,69.145348 106.551880,69.145348 108.412292,69.145348 
	C108.412292,71.378380 108.412292,73.386742 108.412292,75.717331 
	C106.469063,75.717331 104.448929,75.717331 101.734131,75.717331 
	C102.085335,73.489014 102.419289,71.370155 103.193069,69.198318 
z"/>
</svg>