<svg version="1.1" id="Layer_1" xmlns="http://www.w3.org/2000/svg" xmlns:xlink="http://www.w3.org/1999/xlink" x="0px" y="0px"
	 width="100%" viewBox="0 0 500 500" enable-background="new 0 0 500 500" xml:space="preserve">
<path fill="#FFFFFF" opacity="1.000000" stroke="none" 
	d="
M501.000000,1.999996 
	C501.000000,167.691574 501.000000,333.383148 500.677338,499.442993 
	C417.533997,416.940460 334.713287,334.069611 251.770950,251.077057 
	C252.981293,249.611176 254.015121,248.359070 255.354065,246.965210 
	C259.477844,242.897461 263.296509,238.971481 267.415527,234.911682 
	C270.493011,231.888458 273.270111,228.999039 276.352997,225.968628 
	C280.143036,222.233322 283.627258,218.638992 287.412476,214.910599 
	C290.158966,212.219742 292.604431,209.662949 295.354462,206.965485 
	C298.141022,204.233490 300.623047,201.642181 303.407471,198.914719 
	C308.156708,194.220840 312.603485,189.663132 317.355499,184.964188 
	C322.456390,179.918396 327.252075,175.013824 332.352844,169.966949 
	C338.142609,164.231384 343.627258,158.638123 349.413177,152.908829 
	C355.159851,147.217133 360.605255,141.661499 366.355286,135.963562 
	C372.122345,130.250366 377.584808,124.679466 383.352081,118.965752 
	C390.806274,111.565521 397.955688,104.308113 405.406799,96.913155 
	C416.821259,85.554077 427.934021,74.332558 439.351196,62.967010 
	C453.326141,49.162819 466.971802,35.477596 480.677948,21.853188 
	C487.394012,15.177191 494.222412,8.614158 501.000000,1.999996 
z"/>
<path fill="#BB1CE6" opacity="1.000000" stroke="none" 
	d="
M1.000000,78.000000 
	C1.000000,67.979103 1.000000,57.958210 1.352408,47.502953 
	C3.608236,48.350780 5.783149,49.361324 7.376485,50.953766 
	C155.358704,198.853012 303.300598,346.792603 451.185333,494.789276 
	C452.855743,496.460968 453.745697,498.912506 455.000000,501.000000 
	C444.979095,501.000000 434.958221,501.000000 424.434875,500.655334 
	C422.929047,499.014618 422.053741,497.590515 420.904114,496.440582 
	C282.428070,357.926117 143.933731,219.429947 5.405544,80.967636 
	C4.176332,79.739006 2.478854,78.978867 1.000000,78.000000 
z"/>
<path fill="#B224EA" opacity="1.000000" stroke="none" 
	d="
M1.000000,137.000000 
	C1.000000,125.645775 1.000000,114.291542 1.344629,102.502594 
	C2.984955,103.070908 4.408636,103.945923 5.558194,105.095139 
	C136.072906,235.571274 266.569275,366.065735 397.031647,496.594238 
	C398.260406,497.823639 399.020874,499.521088 400.000000,501.000000 
	C388.645782,501.000000 377.291534,501.000000 365.434875,500.655334 
	C363.929443,499.015015 363.054382,497.591431 361.905243,496.441864 
	C243.095688,377.593475 124.267776,258.763428 5.405543,139.967728 
	C4.176259,138.739120 2.478864,137.978882 1.000000,137.000000 
z"/>
<path fill="#BF18E4" opacity="1.000000" stroke="none" 
	d="
M455.468628,501.000000 
	C453.745697,498.912506 452.855743,496.460968 451.185333,494.789276 
	C303.300598,346.792603 155.358704,198.853012 7.376485,50.953766 
	C5.783149,49.361324 3.608236,48.350780 1.352408,47.034294 
	C1.000000,38.979099 1.000000,30.958199 1.365269,22.472544 
	C3.711189,23.395926 5.950650,24.525097 7.635631,26.209078 
	C142.576599,161.069946 277.474213,295.974182 412.375092,430.875153 
	C433.817871,452.317932 455.286163,473.735321 476.649628,495.256836 
	C478.161072,496.779449 478.901184,499.067749 480.000000,501.000000 
	C471.979095,501.000000 463.958191,501.000000 455.468628,501.000000 
z"/>
<path fill="#C315E3" opacity="1.000000" stroke="none" 
	d="
M480.468933,501.000000 
	C478.901184,499.067749 478.161072,496.779449 476.649628,495.256836 
	C455.286163,473.735321 433.817871,452.317932 412.375092,430.875153 
	C277.474213,295.974182 142.576599,161.069946 7.635631,26.209078 
	C5.950650,24.525097 3.711189,23.395926 1.365269,22.003895 
	C1.000000,15.108588 1.000000,8.217176 1.000000,1.000000 
	C4.001122,1.000000 7.013996,1.000000 10.547216,1.344665 
	C12.422878,3.337393 13.650485,5.113098 15.151816,6.615222 
	C93.677330,85.182220 172.227600,163.724472 250.760666,242.283920 
	C252.278961,243.802765 253.623383,245.495407 255.048950,247.106964 
	C254.015121,248.359070 252.981293,249.611176 251.770950,251.077057 
	C334.713287,334.069611 417.533997,416.940460 500.677338,499.905670 
	C500.027161,500.333374 499.058685,500.939453 498.080719,500.955139 
	C492.367676,501.046722 486.652374,501.000000 480.468933,501.000000 
z"/>
<path fill="#A134F1" opacity="1.000000" stroke="none" 
	d="
M270.000000,501.000000 
	C256.645782,501.000000 243.291550,501.000000 229.434875,500.655334 
	C227.930328,499.015778 227.056076,497.593048 225.907806,496.444183 
	C152.431732,422.927643 78.937065,349.429657 5.405875,275.968262 
	C4.176158,274.739716 2.479021,273.979004 1.000000,273.000000 
	C1.000000,259.645782 1.000000,246.291550 1.365260,232.472626 
	C3.355967,233.040924 5.239951,233.815125 6.569923,235.143860 
	C93.427658,321.919861 180.246414,408.734894 267.005371,495.609589 
	C268.402222,497.008301 269.019135,499.185883 270.000000,501.000000 
z"/>
<path fill="#B620E8" opacity="1.000000" stroke="none" 
	d="
M400.468628,501.000000 
	C399.020874,499.521088 398.260406,497.823639 397.031647,496.594238 
	C266.569275,366.065735 136.072906,235.571274 5.558194,105.095139 
	C4.408636,103.945923 2.984955,103.070908 1.344629,102.033936 
	C1.000000,94.312424 1.000000,86.624847 1.000000,78.468636 
	C2.478854,78.978867 4.176332,79.739006 5.405544,80.967636 
	C143.933731,219.429947 282.428070,357.926117 420.904114,496.440582 
	C422.053741,497.590515 422.929047,499.014618 423.966217,500.655334 
	C416.312408,501.000000 408.624847,501.000000 400.468628,501.000000 
z"/>
<path fill="#A72EEE" opacity="1.000000" stroke="none" 
	d="
M270.468658,501.000000 
	C269.019135,499.185883 268.402222,497.008301 267.005371,495.609589 
	C180.246414,408.734894 93.427658,321.919861 6.569923,235.143860 
	C5.239951,233.815125 3.355967,233.040924 1.365260,232.003967 
	C1.000000,220.979111 1.000000,209.958206 1.344696,198.502319 
	C2.985025,199.070160 4.408585,199.945023 5.558090,201.094055 
	C104.073090,299.569641 202.569656,398.063660 301.031036,496.592834 
	C302.260071,497.822693 303.020721,499.520569 304.000000,501.000000 
	C292.979095,501.000000 281.958221,501.000000 270.468658,501.000000 
z"/>
<path fill="#AB2AED" opacity="1.000000" stroke="none" 
	d="
M304.468658,501.000000 
	C303.020721,499.520569 302.260071,497.822693 301.031036,496.592834 
	C202.569656,398.063660 104.073090,299.569641 5.558090,201.094055 
	C4.408585,199.945023 2.985025,199.070160 1.344696,198.033661 
	C1.000000,189.312439 1.000000,180.624863 1.352409,171.502960 
	C3.607548,172.350082 5.781457,173.360168 7.374322,174.951752 
	C114.024948,281.516968 220.634460,388.123322 327.184662,494.788940 
	C328.855042,496.461121 329.745544,498.912323 331.000000,501.000000 
	C322.312439,501.000000 313.624878,501.000000 304.468658,501.000000 
z"/>
<path fill="#9C38F3" opacity="1.000000" stroke="none" 
	d="
M1.000000,273.468658 
	C2.479021,273.979004 4.176158,274.739716 5.405875,275.968262 
	C78.937065,349.429657 152.431732,422.927643 225.907806,496.444183 
	C227.056076,497.593048 227.930328,499.015778 228.966217,500.655334 
	C217.645767,501.000000 206.291550,501.000000 194.434845,500.655334 
	C192.930527,499.016144 192.056427,497.593964 190.908554,496.445343 
	C129.099182,434.594604 67.271049,372.762543 5.405407,310.968109 
	C4.175645,309.739746 2.478898,308.978912 1.000004,308.000000 
	C1.000000,296.645782 1.000000,285.291534 1.000000,273.468658 
z"/>
<path fill="#AF27EB" opacity="1.000000" stroke="none" 
	d="
M1.000000,137.468277 
	C2.478864,137.978882 4.176259,138.739120 5.405543,139.967728 
	C124.267776,258.763428 243.095688,377.593475 361.905243,496.441864 
	C363.054382,497.591431 363.929443,499.015015 364.966248,500.655334 
	C358.978851,501.000000 352.957703,501.000000 346.434509,500.655334 
	C344.929321,499.014862 344.054108,497.591187 342.904816,496.441498 
	C230.429138,383.926758 117.935043,271.430420 5.406425,158.968613 
	C4.176816,157.739746 2.479163,156.979172 1.000000,156.000000 
	C1.000000,149.978851 1.000000,143.957703 1.000000,137.468277 
z"/>
<path fill="#973DF5" opacity="1.000000" stroke="none" 
	d="
M1.000004,308.468658 
	C2.478898,308.978912 4.175645,309.739746 5.405407,310.968109 
	C67.271049,372.762543 129.099182,434.594604 190.908554,496.445343 
	C192.056427,497.593964 192.930527,499.016144 193.966187,500.655334 
	C182.645767,501.000000 171.291550,501.000000 159.464676,500.634735 
	C158.077530,498.762573 157.421280,496.997894 156.211380,495.785919 
	C106.201317,445.689056 56.150818,395.632568 6.035787,345.640747 
	C4.754302,344.362427 2.696008,343.862793 0.999996,343.000000 
	C1.000000,331.645782 1.000000,320.291534 1.000004,308.468658 
z"/>
<path fill="#CC1AC9" opacity="1.000000" stroke="none" 
	d="
M317.050293,185.105423 
	C312.603485,189.663132 308.156708,194.220840 303.099060,198.770294 
	C302.224060,198.560303 301.932617,198.385925 301.699615,198.153046 
	C237.541412,134.015381 173.380661,69.880264 109.285080,5.680085 
	C108.124840,4.517954 107.744324,2.577365 107.000000,1.000001 
	C116.354225,1.000000 125.708458,1.000000 135.566544,1.349196 
	C138.065964,4.318047 139.790848,7.207894 142.096695,9.517817 
	C199.068130,66.590233 256.103058,123.599281 313.111450,180.634827 
	C314.512726,182.036758 315.741211,183.611359 317.050293,185.105423 
z"/>
<path fill="#C512E2" opacity="1.000000" stroke="none" 
	d="
M255.354050,246.965195 
	C253.623383,245.495407 252.278961,243.802765 250.760666,242.283920 
	C172.227600,163.724472 93.677330,85.182220 15.151816,6.615222 
	C13.650485,5.113098 12.422878,3.337393 11.033781,1.344665 
	C18.687576,1.000000 26.375153,1.000000 34.561668,1.353238 
	C36.578568,3.842472 37.827225,6.247438 39.653275,8.075716 
	C114.064133,82.577324 188.525589,157.028397 262.995117,231.471375 
	C264.277740,232.753510 265.737885,233.858078 267.115173,235.045502 
	C263.296509,238.971481 259.477844,242.897461 255.354050,246.965195 
z"/>
<path fill="#DA3587" opacity="1.000000" stroke="none" 
	d="
M439.046814,63.111046 
	C427.934021,74.332558 416.821259,85.554077 405.098450,96.768547 
	C374.225586,66.572342 343.946960,36.398907 313.752869,6.141101 
	C312.438202,4.823630 311.899933,2.731361 311.000000,1.000004 
	C333.354218,1.000000 355.708466,1.000000 378.564270,1.344856 
	C380.296143,3.213119 381.401062,4.861463 382.775757,6.240930 
	C399.623383,23.147034 416.519775,40.004543 433.375092,56.903019 
	C435.352600,58.885628 437.160339,61.037598 439.046814,63.111046 
z"/>
<path fill="#D022B5" opacity="1.000000" stroke="none" 
	d="
M349.111938,153.044876 
	C343.627258,158.638123 338.142609,164.231384 332.209778,169.657715 
	C330.506561,168.159271 329.284760,166.794418 327.991577,165.500977 
	C275.215240,112.713318 222.421265,59.943275 169.703110,7.097598 
	C168.071152,5.461697 167.216858,3.050008 166.000000,0.999997 
	C176.687561,1.000000 187.375122,1.000000 198.535370,1.365248 
	C200.273483,3.588352 201.281342,5.703290 202.841766,7.266736 
	C250.189667,54.706394 297.589752,102.093987 344.997681,149.473724 
	C346.278992,150.754257 347.736572,151.858459 349.111938,153.044876 
z"/>
<path fill="#CE1FBD" opacity="1.000000" stroke="none" 
	d="
M165.531342,0.999997 
	C167.216858,3.050008 168.071152,5.461697 169.703110,7.097598 
	C222.421265,59.943275 275.215240,112.713318 327.991577,165.500977 
	C329.284760,166.794418 330.506561,168.159271 331.904724,169.800049 
	C327.252075,175.013824 322.456390,179.918396 317.355499,184.964188 
	C315.741211,183.611359 314.512726,182.036758 313.111450,180.634827 
	C256.103058,123.599281 199.068130,66.590233 142.096695,9.517817 
	C139.790848,7.207894 138.065964,4.318047 136.035202,1.349196 
	C145.687561,1.000000 155.375122,1.000000 165.531342,0.999997 
z"/>
<path fill="#D227AB" opacity="1.000000" stroke="none" 
	d="
M349.413177,152.908829 
	C347.736572,151.858459 346.278992,150.754257 344.997681,149.473724 
	C297.589752,102.093987 250.189667,54.706394 202.841766,7.266736 
	C201.281342,5.703290 200.273483,3.588352 199.004028,1.365248 
	C210.020889,1.000000 221.041794,1.000000 232.565201,1.344648 
	C234.304230,3.218563 235.413544,4.874912 236.795761,6.258641 
	C278.556580,48.064816 320.347046,89.841400 362.116180,131.639282 
	C363.515900,133.039993 364.743073,134.613129 366.050690,136.105865 
	C360.605255,141.661499 355.159851,147.217133 349.413177,152.908829 
z"/>
<path fill="#AD29EC" opacity="1.000000" stroke="none" 
	d="
M1.000000,156.466125 
	C2.479163,156.979172 4.176816,157.739746 5.406425,158.968613 
	C117.935043,271.430420 230.429138,383.926758 342.904816,496.441498 
	C344.054108,497.591187 344.929321,499.014862 345.966248,500.655334 
	C341.310760,501.000000 336.621490,501.000000 331.466125,501.000000 
	C329.745544,498.912323 328.855042,496.461121 327.184662,494.788940 
	C220.634460,388.123322 114.024948,281.516968 7.374322,174.951752 
	C5.781457,173.360168 3.607548,172.350082 1.352409,171.034302 
	C1.000000,166.310745 1.000000,161.621490 1.000000,156.466125 
z"/>
<path fill="#8949FB" opacity="1.000000" stroke="none" 
	d="
M96.000000,501.000000 
	C64.406410,501.000000 32.812817,501.000000 1.000000,501.000000 
	C1.000000,469.646118 1.000000,438.291718 1.365242,406.472778 
	C3.235911,406.921234 4.997487,407.577301 6.209207,408.785034 
	C35.313889,437.793152 64.375633,466.844543 93.363152,495.969666 
	C94.638924,497.251495 95.138741,499.305603 96.000000,501.000000 
z"/>
<path fill="#C915D8" opacity="1.000000" stroke="none" 
	d="
M287.111481,215.044647 
	C283.627258,218.638992 280.143036,222.233322 276.215271,225.657501 
	C274.397369,224.041122 273.054291,222.563583 271.644073,221.153168 
	C200.312744,149.811615 128.967392,78.484055 57.691525,7.087120 
	C56.062798,5.455624 55.213085,3.046434 54.000000,1.000000 
	C60.687645,1.000000 67.375290,1.000000 74.535400,1.365264 
	C76.275269,3.590404 77.284409,5.708215 78.847252,7.273034 
	C146.860992,75.372940 214.922211,143.425446 282.992401,211.468964 
	C284.275116,212.751175 285.734528,213.856689 287.111481,215.044647 
z"/>
<path fill="#D72F95" opacity="1.000000" stroke="none" 
	d="
M310.531311,1.000004 
	C311.899933,2.731361 312.438202,4.823630 313.752869,6.141101 
	C343.946960,36.398907 374.225586,66.572342 404.796783,96.906097 
	C397.955688,104.308113 390.806274,111.565521 383.209106,118.656540 
	C381.508057,117.160339 380.287933,115.797340 378.996613,114.505577 
	C342.881989,78.378891 306.751373,42.268166 270.671234,6.107092 
	C269.209534,4.642136 268.213165,2.712921 267.000000,1.000002 
	C281.354218,1.000000 295.708466,1.000000 310.531311,1.000004 
z"/>
<path fill="#C712DF" opacity="1.000000" stroke="none" 
	d="
M53.533234,1.000000 
	C55.213085,3.046434 56.062798,5.455624 57.691525,7.087120 
	C128.967392,78.484055 200.312744,149.811615 271.644073,221.153168 
	C273.054291,222.563583 274.397369,224.041122 275.909485,225.798492 
	C273.270111,228.999039 270.493011,231.888458 267.415527,234.911682 
	C265.737885,233.858078 264.277740,232.753510 262.995117,231.471375 
	C188.525589,157.028397 114.064133,82.577324 39.653275,8.075716 
	C37.827225,6.247438 36.578568,3.842472 35.030304,1.353238 
	C41.022156,1.000000 47.044315,1.000000 53.533234,1.000000 
z"/>
<path fill="#9340F7" opacity="1.000000" stroke="none" 
	d="
M0.999996,343.468689 
	C2.696008,343.862793 4.754302,344.362427 6.035787,345.640747 
	C56.150818,395.632568 106.201317,445.689056 156.211380,495.785919 
	C157.421280,496.997894 158.077530,498.762573 158.996017,500.634735 
	C149.645767,501.000000 140.291550,501.000000 130.434875,500.655334 
	C129.166443,499.252106 128.528030,498.066101 127.616142,497.153229 
	C86.786491,456.281128 45.938732,415.427063 5.050568,374.613495 
	C3.938645,373.503632 2.360649,372.860687 0.999997,372.000000 
	C1.000000,362.645782 1.000000,353.291534 0.999996,343.468689 
z"/>
<path fill="#D52BA0" opacity="1.000000" stroke="none" 
	d="
M266.531342,1.000002 
	C268.213165,2.712921 269.209534,4.642136 270.671234,6.107092 
	C306.751373,42.268166 342.881989,78.378891 378.996613,114.505577 
	C380.287933,115.797340 381.508057,117.160339 382.904327,118.799347 
	C377.584808,124.679466 372.122345,130.250366 366.355286,135.963562 
	C364.743073,134.613129 363.515900,133.039993 362.116180,131.639282 
	C320.347046,89.841400 278.556580,48.064816 236.795761,6.258641 
	C235.413544,4.874912 234.304230,3.218563 233.033859,1.344648 
	C244.020889,1.000000 255.041794,1.000000 266.531342,1.000002 
z"/>
<path fill="#DE3D72" opacity="1.000000" stroke="none" 
	d="
M439.351196,62.967026 
	C437.160339,61.037598 435.352600,58.885628 433.375092,56.903019 
	C416.519775,40.004543 399.623383,23.147034 382.775757,6.240930 
	C381.401062,4.861463 380.296143,3.213119 379.032959,1.344856 
	C419.666656,1.000000 460.333344,1.000000 501.000000,1.499996 
	C494.222412,8.614158 487.394012,15.177191 480.677948,21.853188 
	C466.971802,35.477596 453.326141,49.162819 439.351196,62.967026 
z"/>
<path fill="#8F44F8" opacity="1.000000" stroke="none" 
	d="
M0.999997,372.468658 
	C2.360649,372.860687 3.938645,373.503632 5.050568,374.613495 
	C45.938732,415.427063 86.786491,456.281128 127.616142,497.153229 
	C128.528030,498.066101 129.166443,499.252106 129.966217,500.655334 
	C118.979103,501.000000 107.958214,501.000000 96.468658,501.000000 
	C95.138741,499.305603 94.638924,497.251495 93.363152,495.969666 
	C64.375633,466.844543 35.313889,437.793152 6.209207,408.785034 
	C4.997487,407.577301 3.235911,406.921234 1.365242,406.004089 
	C1.000000,394.979095 1.000000,383.958221 0.999997,372.468658 
z"/>
<path fill="#CA17D2" opacity="1.000000" stroke="none" 
	d="
M287.412476,214.910583 
	C285.734528,213.856689 284.275116,212.751175 282.992401,211.468964 
	C214.922211,143.425446 146.860992,75.372940 78.847252,7.273034 
	C77.284409,5.708215 76.275269,3.590404 75.003929,1.365264 
	C80.022095,1.000000 85.044182,1.000000 90.566925,1.344666 
	C92.422028,3.336537 93.648911,5.111241 95.149300,6.612610 
	C160.460052,71.965927 225.796753,137.293304 291.115448,202.638687 
	C292.515503,204.039322 293.742310,205.613129 295.049927,207.106140 
	C292.604431,209.662949 290.158966,212.219742 287.412476,214.910583 
z"/>
<path fill="#CB19CE" opacity="1.000000" stroke="none" 
	d="
M295.354462,206.965485 
	C293.742310,205.613129 292.515503,204.039322 291.115448,202.638687 
	C225.796753,137.293304 160.460052,71.965927 95.149300,6.612610 
	C93.648911,5.111241 92.422028,3.336537 91.033783,1.344666 
	C96.022095,1.000000 101.044182,1.000000 106.533134,1.000001 
	C107.744324,2.577365 108.124840,4.517954 109.285080,5.680085 
	C173.380661,69.880264 237.541412,134.015381 301.699615,198.153046 
	C301.932617,198.385925 302.224060,198.560303 302.796631,198.906448 
	C300.623047,201.642181 298.141022,204.233490 295.354462,206.965485 
z"/>
</svg>